HIERARCHY
ROOT joint_Root
{
	OFFSET 0.0 0.0 0.0
	CHANNELS 6 Xposition Yposition Zposition Zrotation Xrotation Yrotation 
	JOINT Hips
	{
		OFFSET -17.1583 93.1646 452.98
		CHANNELS 6 Xposition Yposition Zposition Zrotation Xrotation Yrotation 
		JOINT Spine
		{
			OFFSET 15.7357 0.0 0.0
			CHANNELS 6 Xposition Yposition Zposition Zrotation Xrotation Yrotation 
			JOINT Chest
			{
				OFFSET 8.98455 -0.406207 0.0
				CHANNELS 6 Xposition Yposition Zposition Zrotation Xrotation Yrotation 
				JOINT Neck
				{
					OFFSET 16.3773 0.0 0.0
					CHANNELS 6 Xposition Yposition Zposition Zrotation Xrotation Yrotation 
					JOINT Head
					{
						OFFSET 6.45672 0.0 0.0
						CHANNELS 6 Xposition Yposition Zposition Zrotation Xrotation Yrotation 
						End Site
						{
							OFFSET 0.0 0.0 0.0
						}
					}
				}
				JOINT Shoulder_L
				{
					OFFSET 12.9942 -0.242716 4.98039
					CHANNELS 6 Xposition Yposition Zposition Zrotation Xrotation Yrotation 
					JOINT UpperArm_L
					{
						OFFSET 5.34809 0.0 0.0
						CHANNELS 6 Xposition Yposition Zposition Zrotation Xrotation Yrotation 
						JOINT LowerArm_L
						{
							OFFSET 24.3286 1.87007e-05 0.0
							CHANNELS 6 Xposition Yposition Zposition Zrotation Xrotation Yrotation 
							JOINT Hand_L
							{
								OFFSET 22.2916 0.0 0.0
								CHANNELS 6 Xposition Yposition Zposition Zrotation Xrotation Yrotation 
								End Site
								{
									OFFSET 0.0 0.0 0.0
								}
							}
						}
					}
				}
				JOINT Shoulder_R
				{
					OFFSET 12.9945 -0.242716 -4.98039
					CHANNELS 6 Xposition Yposition Zposition Zrotation Xrotation Yrotation 
					JOINT UpperArm_R
					{
						OFFSET -5.34813 0.0 0.0
						CHANNELS 6 Xposition Yposition Zposition Zrotation Xrotation Yrotation 
						JOINT LowerArm_R
						{
							OFFSET -24.3289 0.000322201 0.0
							CHANNELS 6 Xposition Yposition Zposition Zrotation Xrotation Yrotation 
							JOINT Hand_R
							{
								OFFSET -22.2915 -0.000108084 0.0
								CHANNELS 6 Xposition Yposition Zposition Zrotation Xrotation Yrotation 
								End Site
								{
									OFFSET 0.0 0.0 0.0
								}
							}
						}
					}
				}
			}
		}
		JOINT UpperLeg_L
		{
			OFFSET -2.19248 -6.46944 0.0
			CHANNELS 6 Xposition Yposition Zposition Zrotation Xrotation Yrotation 
			JOINT LowerLeg_L
			{
				OFFSET 39.0811 0.0 -1.23785e-05
				CHANNELS 6 Xposition Yposition Zposition Zrotation Xrotation Yrotation 
				JOINT Foot_L
				{
					OFFSET 40.9854 0.0 -1.26872e-05
					CHANNELS 6 Xposition Yposition Zposition Zrotation Xrotation Yrotation 
					JOINT Toes_L
					{
						OFFSET 11.7543 0.0 0.0
						CHANNELS 6 Xposition Yposition Zposition Zrotation Xrotation Yrotation 
						End Site
						{
							OFFSET 0.0 0.0 0.0
						}
					}
				}
			}
		}
		JOINT UpperLeg_R
		{
			OFFSET -2.19251 6.46944 0.0
			CHANNELS 6 Xposition Yposition Zposition Zrotation Xrotation Yrotation 
			JOINT LowerLeg_R
			{
				OFFSET -39.0811 -0.00228153 -0.0401928
				CHANNELS 6 Xposition Yposition Zposition Zrotation Xrotation Yrotation 
				JOINT Foot_R
				{
					OFFSET -40.9854 0.0 0.0
					CHANNELS 6 Xposition Yposition Zposition Zrotation Xrotation Yrotation 
					JOINT Toes_R
					{
						OFFSET -11.7543 0.0 0.0
						CHANNELS 6 Xposition Yposition Zposition Zrotation Xrotation Yrotation 
						End Site
						{
							OFFSET 0.0 0.0 0.0
						}
					}
				}
			}
		}
	}
}
MOTION
Frames:	6
Frame Time:	0.0333333
0.000000 0.000000 0.000000 0.000000 0.000000 -0.000000 -1.952210 92.483200 0.286308 87.621300 4.645180 4.138880 15.735700 0.000005 -0.000001 83.695500 86.047500 -82.798100 8.984550 -0.406207 -0.000000 0.099087 -0.927849 1.794610 16.377300 -0.000001 -0.000001 7.009660 0.812849 -2.342600 6.456720 -0.000001 -0.000000 -6.202630 -0.734693 -0.707894 12.994200 -0.242716 4.980390 -93.566500 10.302000 -70.785900 5.348090 -0.000007 -0.000001 -69.283800 30.099200 -2.619690 24.328600 0.000019 0.000005 12.100400 28.483500 -24.205800 22.291600 -0.000001 0.000005 -5.011020 5.101690 5.074950 12.994500 -0.242716 -4.980390 87.399000 7.275510 -70.266900 -5.348130 -0.000001 -0.000004 -69.374600 28.826000 -4.315790 -24.328900 0.000322 -0.000009 1.766070 4.861100 -20.005300 -22.291500 -0.000108 -0.000004 -5.156550 5.244200 1.584930 -2.192480 -6.469440 -0.000000 -177.384000 1.719530 -0.421251 39.081100 -0.000007 -0.000012 0.242678 -0.603040 21.921500 40.985400 -0.000006 -0.000013 2.352170 6.913470 -72.825500 11.754300 -0.000000 0.000003 -0.000846 0.180817 -9.242140 -2.192510 6.469440 -0.000001 -175.769000 12.548900 -175.040000 -39.081100 -0.002282 -0.040193 0.051950 -0.193968 14.071400 -40.985400 0.000008 0.000006 1.245440 3.266080 -70.453500 -11.754300 -0.000006 -0.000006 -0.009774 0.269611 -5.620280
0.000000 0.000000 0.000000 0.000000 0.000000 -0.000000 -1.984230 92.501500 0.179949 87.508000 4.532090 4.003710 15.735700 0.000005 -0.000001 83.827000 86.063300 -82.911700 8.984550 -0.406207 -0.000000 0.069754 -0.907878 1.830010 16.377300 -0.000001 -0.000001 6.669720 0.736842 -2.172900 6.456720 -0.000001 -0.000000 -6.428130 -0.896924 -0.513496 12.994200 -0.242716 4.980390 -93.561800 10.286300 -70.782500 5.348090 -0.000007 -0.000001 -69.359100 30.053500 -2.511360 24.328600 0.000019 0.000005 12.013700 28.252400 -24.207100 22.291600 -0.000001 0.000005 -4.979910 5.100590 5.100060 12.994500 -0.242716 -4.980390 87.376100 7.335410 -70.255400 -5.348130 -0.000001 -0.000004 -68.728700 27.646700 -4.492510 -24.328900 0.000322 -0.000009 2.041470 5.484190 -20.463300 -22.291500 -0.000108 -0.000004 -5.627860 5.244510 1.577280 -2.192480 -6.469440 -0.000000 -177.258000 1.705140 -0.650059 39.081100 -0.000007 -0.000012 0.245835 -0.609062 21.980900 40.985400 -0.000006 -0.000013 2.313650 6.847410 -72.874900 11.754300 -0.000000 0.000003 -0.001122 0.184750 -9.082280 -2.192510 6.469440 -0.000001 -175.602000 12.393200 -175.220000 -39.081100 -0.002282 -0.040193 0.048601 -0.181851 13.978800 -40.985400 0.000008 0.000006 1.072090 3.298240 -70.304400 -11.754300 -0.000006 -0.000006 -0.010046 0.271650 -5.536890
0.000000 0.000000 0.000000 0.000000 0.000000 -0.000000 -1.999910 92.516600 0.081479 87.444800 4.413840 3.934170 15.735700 0.000005 -0.000001 83.962600 86.036800 -83.038400 8.984550 -0.406207 -0.000000 0.124293 -0.895064 1.848270 16.377300 -0.000001 -0.000001 6.278330 0.611397 -1.940050 6.456720 -0.000001 -0.000000 -6.719840 -1.084150 -0.299103 12.994200 -0.242716 4.980390 -93.553200 10.287400 -70.827300 5.348090 -0.000007 -0.000001 -69.440200 29.974900 -2.452880 24.328600 0.000019 0.000005 12.081700 28.417100 -24.217500 22.291600 -0.000001 0.000005 -5.110130 5.100240 5.108340 12.994500 -0.242716 -4.980390 87.359400 7.366490 -70.216200 -5.348130 -0.000001 -0.000004 -67.977000 25.567600 -4.672080 -24.328900 0.000322 -0.000009 2.395680 6.120430 -21.432800 -22.291500 -0.000108 -0.000004 -6.158030 5.241320 1.661860 -2.192480 -6.469440 -0.000000 -177.203000 1.757810 -0.796805 39.081100 -0.000007 -0.000012 0.245765 -0.608287 22.000600 40.985400 -0.000006 -0.000013 2.270150 6.705280 -72.798700 11.754300 -0.000000 0.000003 -0.000917 0.181850 -9.200170 -2.192510 6.469440 -0.000001 -175.519000 12.377300 -175.344000 -39.081100 -0.002282 -0.040193 0.047006 -0.176284 13.914600 -40.985400 0.000008 0.000006 1.057350 3.383890 -70.143400 -11.754300 -0.000006 -0.000006 -0.009616 0.268413 -5.669270
0.000000 0.000000 0.000000 0.000000 0.000000 -0.000000 -2.013470 92.536700 -0.059823 87.361000 4.327990 3.801100 15.735700 0.000005 -0.000001 83.810700 86.028300 -82.851300 8.984550 -0.406207 -0.000000 0.139505 -0.920002 1.918610 16.377300 -0.000001 -0.000001 5.889940 0.481805 -1.698950 6.456720 -0.000001 -0.000000 -7.152520 -1.302570 -0.079365 12.994200 -0.242716 4.980390 -93.549800 10.310400 -70.883600 5.348090 -0.000007 -0.000001 -69.518200 30.067800 -2.296250 24.328600 0.000019 0.000005 12.127600 28.297300 -24.384700 22.291600 -0.000001 0.000005 -5.097290 5.095460 5.217490 12.994500 -0.242716 -4.980390 87.343900 7.363980 -70.102400 -5.348130 -0.000001 -0.000004 -67.227200 22.068400 -4.693480 -24.328900 0.000322 -0.000009 2.599560 6.110740 -23.110300 -22.291500 -0.000108 -0.000004 -6.798510 5.226350 2.051540 -2.192480 -6.469440 -0.000000 -177.126000 1.864570 -1.052740 39.081100 -0.000007 -0.000012 0.244372 -0.603417 22.047400 40.985400 -0.000006 -0.000013 2.202480 6.504620 -72.745900 11.754300 -0.000000 0.000003 -0.000922 0.181915 -9.197520 -2.192510 6.469440 -0.000001 -175.364000 12.215000 -175.572000 -39.081100 -0.002282 -0.040193 0.045897 -0.172429 13.866600 -40.985400 0.000008 0.000006 0.978180 3.336690 -70.041500 -11.754300 -0.000006 -0.000006 -0.009954 0.270962 -5.565010
0.000000 0.000000 0.000000 0.000000 0.000000 -0.000000 -2.045130 92.551800 -0.197272 87.255400 4.268110 3.684870 15.735700 0.000005 -0.000001 83.424100 86.009000 -82.428900 8.984550 -0.406207 -0.000000 0.172928 -0.979775 1.990570 16.377300 -0.000001 -0.000001 5.429830 0.302195 -1.343590 6.456720 -0.000001 -0.000000 -7.590450 -1.463710 0.229046 12.994200 -0.242716 4.980390 -93.538500 10.320500 -70.957200 5.348090 -0.000007 -0.000001 -69.596500 30.044100 -2.162820 24.328600 0.000019 0.000005 12.053600 28.106600 -24.382600 22.291600 -0.000001 0.000005 -5.155880 5.099810 5.118080 12.994500 -0.242716 -4.980390 87.340400 7.309680 -69.943000 -5.348130 -0.000001 -0.000004 -66.491000 17.831800 -4.464270 -24.328900 0.000322 -0.000009 2.402250 4.960940 -25.893600 -22.291500 -0.000108 -0.000004 -6.816680 5.197720 2.777420 -2.192480 -6.469440 -0.000000 -177.040000 2.026630 -1.317020 39.081100 -0.000007 -0.000012 0.248907 -0.611653 22.143900 40.985400 -0.000006 -0.000013 2.144400 6.305010 -72.713500 11.754300 -0.000000 0.000003 -0.001004 0.183099 -9.149410 -2.192510 6.469440 -0.000001 -175.204000 12.183700 -175.770000 -39.081100 -0.002282 -0.040193 0.044302 -0.166974 13.786000 -40.985400 0.000008 0.000006 0.981804 3.357530 -69.866200 -11.754300 -0.000006 -0.000006 -0.009994 0.271260 -5.552840
0.000000 0.000000 0.000000 0.000000 0.000000 -0.000000 -2.068540 92.573700 -0.341954 87.158700 4.183560 3.592410 15.735700 0.000005 -0.000001 82.811300 85.996000 -81.771400 8.984550 -0.406207 -0.000000 0.189708 -1.070560 2.080220 16.377300 -0.000001 -0.000001 5.094310 0.174859 -1.011400 6.456720 -0.000001 -0.000000 -8.146350 -1.620770 0.741729 12.994200 -0.242716 4.980390 -93.538900 10.338000 -70.985200 5.348090 -0.000007 -0.000001 -69.696800 29.978900 -1.980430 24.328600 0.000019 0.000005 12.041500 28.026900 -24.416400 22.291600 -0.000001 0.000005 -5.101690 5.102400 5.059160 12.994500 -0.242716 -4.980390 87.330900 7.279350 -69.800300 -5.348130 -0.000001 -0.000004 -65.767700 12.324300 -3.966510 -24.328900 0.000322 -0.000009 2.598210 4.505450 -30.026500 -22.291500 -0.000108 -0.000004 -7.029380 5.174490 3.351210 -2.192480 -6.469440 -0.000000 -176.957000 2.193100 -1.532880 39.081100 -0.000007 -0.000012 0.247151 -0.605990 22.188400 40.985400 -0.000006 -0.000013 2.064620 6.050070 -72.666100 11.754300 -0.000000 0.000003 -0.000940 0.182181 -9.186700 -2.192510 6.469440 -0.000001 -175.093000 12.222300 -175.939000 -39.081100 -0.002282 -0.040193 0.041485 -0.156366 13.711900 -40.985400 0.000008 0.000006 0.847146 3.510460 -69.703000 -11.754300 -0.000006 -0.000006 -0.009981 0.271160 -5.556920
